<svg xmlns="http://www.w3.org/2000/svg" viewBox="0 0 1400 500"><defs><linearGradient id="g" x2="1"><stop stop-color="#101b20"/><stop offset=".5" stop-color="#1b282e"/><stop offset="1" stop-color="#303a3d"/></linearGradient></defs><rect width="1400" height="500" fill="#081015"/><g opacity=".25" stroke="#9aa6a9" fill="none" stroke-width="2"><path d="M620 70h130v80h80v100h-80v100H620M680 70v280M750 70v280M620 150h60m70 0h70M620 250h60m70 0h70M620 350h60m70 0h70"/><circle cx="680" cy="150" r="7"/><circle cx="750" cy="250" r="7"/><circle cx="830" cy="350" r="7"/></g><g transform="translate(950 80)"><rect width="300" height="300" rx="12" fill="url(#g)" stroke="#566268"/><g fill="#11191d" stroke="#9aa3a6"><rect x="25" y="35" width="55" height="115"/><rect x="90" y="35" width="55" height="115"/><rect x="155" y="35" width="55" height="115"/><rect x="220" y="35" width="55" height="115"/></g><g fill="#333"><rect x="40" y="60" width="25" height="50" rx="8"/><rect x="105" y="60" width="25" height="50" rx="8"/><rect x="170" y="60" width="25" height="50" rx="8"/><rect x="235" y="60" width="25" height="50" rx="8"/></g><path d="M52 150v110M117 150v110M182 150v110M247 150v110" stroke="#a0181d" stroke-width="8"/></g></svg>